<svg xmlns="http://www.w3.org/2000/svg" viewBox="0 0 280 200" fill="none">
  <rect x="20" y="78" width="240" height="52" rx="4" fill="#1a0a0a" stroke="#ef4444" stroke-opacity="0.35" stroke-width="1.5"/>
  <rect x="20" y="78" width="240" height="10" fill="#ef4444" fill-opacity="0.2"/>
  <rect x="30" y="96" width="38" height="26" rx="2" fill="#ef4444" fill-opacity="0.25" stroke="#ef4444" stroke-opacity="0.45"/>
  <rect x="76" y="96" width="38" height="26" rx="2" fill="#ef4444" fill-opacity="0.18"/>
  <rect x="122" y="96" width="38" height="26" rx="2" fill="#140808" stroke="#ef4444" stroke-opacity="0.6" stroke-dasharray="4 3"/>
  <line x1="128" y1="102" x2="154" y2="116" stroke="#ef4444" stroke-opacity="0.8" stroke-width="2" stroke-linecap="round"/>
  <line x1="154" y1="102" x2="128" y2="116" stroke="#ef4444" stroke-opacity="0.8" stroke-width="2" stroke-linecap="round"/>
  <rect x="168" y="96" width="38" height="26" rx="2" fill="#ef4444" fill-opacity="0.12"/>
  <rect x="214" y="96" width="38" height="26" rx="2" fill="#ef4444" fill-opacity="0.1"/>
  <rect x="155" y="28" width="56" height="64" rx="5" fill="#140808" stroke="#ef4444" stroke-opacity="0.55" stroke-width="1.5"/>
  <text x="163" y="52" font-family="monospace" font-size="11" fill="#ef4444" fill-opacity="0.75">.webm</text>
  <text x="163" y="68" font-family="monospace" font-size="9" fill="#ef4444" fill-opacity="0.45">codec error</text>
  <line x1="183" y1="92" x2="183" y2="68" stroke="#ef4444" stroke-opacity="0.45" stroke-width="1.5" stroke-dasharray="3 3"/>
  <line x1="200" y1="40" x2="216" y2="56" stroke="#ef4444" stroke-opacity="0.7" stroke-width="2.5" stroke-linecap="round"/>
  <line x1="216" y1="40" x2="200" y2="56" stroke="#ef4444" stroke-opacity="0.7" stroke-width="2.5" stroke-linecap="round"/>
  <text x="24" y="158" font-family="sans-serif" font-size="10" fill="#ef4444" fill-opacity="0.5">Premiere: Unsupported format</text>
</svg>
